<svg xmlns="http://www.w3.org/2000/svg" xmlns:xlink="http://www.w3.org/1999/xlink" preserveAspectRatio="xMidYMid" width="50" height="203" viewBox="0 0 50 203">
  <defs>
    <style>
      .cls-1 {
        fill: #fff;
        fill-rule: evenodd;
      }
    </style>
  </defs>
  <path d="M27.319,20.863 L27.319,18.795 C27.319,18.485 27.333,18.244 27.362,18.074 C27.391,17.904 27.455,17.737 27.556,17.572 C27.656,17.407 27.818,17.293 28.043,17.230 C28.267,17.166 28.566,17.135 28.939,17.135 L30.972,17.135 L30.972,12.998 L27.721,12.998 C25.839,12.998 24.488,13.452 23.666,14.360 C22.845,15.268 22.435,16.605 22.435,18.373 L22.435,20.863 L19.999,20.863 L19.999,25.000 L22.434,25.000 L22.434,37.002 L27.319,37.002 L27.319,25.000 L30.571,25.000 L31.001,20.863 L27.319,20.863 Z" class="cls-1"/>
  <path d="M34.000,76.500 L34.000,79.500 L32.500,79.500 L32.500,76.500 L29.500,76.500 L29.500,75.000 L32.500,75.000 L32.500,72.000 L34.000,72.000 L34.000,75.000 L37.000,75.000 L37.000,76.500 L34.000,76.500 ZM20.500,84.000 C16.364,84.000 13.000,80.635 13.000,76.500 C13.000,72.364 16.364,69.000 20.500,69.000 C22.301,69.000 24.035,69.648 25.385,70.824 L23.414,73.086 C22.610,72.385 21.575,72.000 20.500,72.000 C18.019,72.000 16.000,74.019 16.000,76.500 C16.000,78.981 18.019,81.000 20.500,81.000 C22.456,81.000 24.124,79.746 24.743,78.000 L20.500,78.000 L20.500,75.000 L28.000,75.000 L28.000,76.500 C28.000,80.635 24.635,84.000 20.500,84.000 Z" class="cls-1"/>
  <path d="M35.393,118.333 C34.521,118.853 33.554,119.231 32.526,119.436 C31.702,118.551 30.530,118.000 29.232,118.000 C26.739,118.000 24.718,120.036 24.718,122.545 C24.718,122.900 24.758,123.248 24.835,123.580 C21.084,123.390 17.759,121.580 15.533,118.831 C15.144,119.501 14.922,120.282 14.922,121.115 C14.922,122.693 15.720,124.084 16.930,124.898 C16.190,124.873 15.494,124.668 14.885,124.327 L14.885,124.384 C14.885,126.586 16.441,128.422 18.505,128.842 C18.127,128.944 17.728,129.001 17.316,129.001 C17.025,129.001 16.743,128.971 16.466,128.919 C17.041,130.724 18.707,132.038 20.681,132.076 C19.138,133.294 17.191,134.020 15.077,134.020 C14.712,134.020 14.353,133.999 14.000,133.958 C15.998,135.247 18.369,136.000 20.918,136.000 C29.220,136.000 33.759,129.074 33.759,123.068 L33.745,122.479 C34.629,121.841 35.396,121.040 36.000,120.130 C35.191,120.491 34.322,120.736 33.409,120.846 C34.341,120.283 35.055,119.391 35.393,118.333 Z" class="cls-1"/>
  <path d="M36.990,178.177 C36.990,184.898 31.499,190.347 24.724,190.347 C22.575,190.347 20.555,189.797 18.797,188.833 L12.007,190.990 L14.220,184.460 C13.104,182.627 12.462,180.475 12.462,178.176 C12.462,171.455 17.952,166.007 24.727,166.007 C31.500,166.009 36.990,171.456 36.990,178.177 ZM24.724,167.947 C19.039,167.947 14.414,172.537 14.414,178.180 C14.414,180.419 15.144,182.492 16.378,184.177 L15.091,187.976 L19.052,186.717 C20.681,187.786 22.631,188.409 24.724,188.409 C30.410,188.409 35.037,183.819 35.037,178.177 C35.037,172.537 30.411,167.947 24.724,167.947 ZM30.919,180.981 C30.843,180.858 30.642,180.783 30.342,180.633 C30.042,180.483 28.563,179.762 28.289,179.665 C28.012,179.564 27.812,179.513 27.611,179.813 C27.412,180.112 26.835,180.783 26.660,180.982 C26.485,181.182 26.310,181.207 26.009,181.058 C25.708,180.908 24.738,180.594 23.589,179.579 C22.696,178.787 22.092,177.811 21.918,177.513 C21.741,177.214 21.900,177.053 22.049,176.905 C22.183,176.770 22.349,176.556 22.500,176.381 C22.651,176.207 22.701,176.085 22.801,175.885 C22.900,175.685 22.850,175.512 22.775,175.361 C22.701,175.211 22.100,173.745 21.849,173.148 C21.598,172.551 21.348,172.650 21.172,172.650 C20.997,172.650 20.797,172.625 20.596,172.625 C20.396,172.625 20.070,172.699 19.795,172.999 C19.519,173.297 18.743,174.018 18.743,175.487 C18.743,176.956 19.819,178.373 19.970,178.572 C20.121,178.770 22.051,181.881 25.107,183.075 C28.164,184.269 28.164,183.870 28.715,183.819 C29.266,183.770 30.493,183.098 30.743,182.403 C30.994,181.705 30.994,181.105 30.919,180.981 Z" class="cls-1"/>
</svg>
