<svg xmlns="http://www.w3.org/2000/svg" viewBox="0 0 24 49.48"><defs><style>.cls-1{fill:#999;}.cls-2{fill:none;}</style></defs><g id="Layer_2" data-name="Layer 2"><g id="Layer_1-2" data-name="Layer 1"><path class="cls-1" d="M19,2.41,17.59,1,12,6.59,6.41,1,5,2.41,10.59,8,5,13.59,6.41,15,12,9.41,17.59,15,19,13.59,13.41,8Z"/><path class="cls-2" d="M0,0H24V24H0Z"/><path class="cls-2" d="M0,25.48H24v24H0Z"/><path class="cls-1" d="M18,42.64a2.91,2.91,0,0,0-2,.77L8.91,39.26a2.77,2.77,0,0,0,0-1.4L16,33.75a3,3,0,1,0-1-2.19,3.27,3.27,0,0,0,.09.7L8,36.37a3,3,0,1,0,0,4.38l7.12,4.16a2.82,2.82,0,0,0-.08.65A2.92,2.92,0,1,0,18,42.64Z"/></g></g></svg>