<?xml version="1.0" encoding="utf-8"?>
<!DOCTYPE svg PUBLIC "-//W3C//DTD SVG 20010904//EN" "http://www.w3.org/TR/2001/REC-SVG-20010904/DTD/svg10.dtd">
<svg version="1.0" xmlns="http://www.w3.org/2000/svg" width="1082pt" height="369pt" viewBox="0 0 1082 369" preserveAspectRatio="xMidYMid meet">
<g fill="#01B3D7FE">
<path d="M 145.98 220.49 C 138.34 218.64 127.50 212.93 121.31 207.50 C 115.32 202.25 107.63 191.18 104.80 183.71 C 103.51 180.32 102.66 174.94 102.31 168.03 C 101.37 149.36 105.96 137.06 118.62 124.33 C 126.22 116.68 133.00 112.64 144.42 108.95 C 154.51 105.69 168.47 106.45 179.70 110.88 C 204.58 120.68 220.01 146.57 216.12 171.99 C 213.05 192.04 201.76 207.43 183.80 216.01 C 171.20 222.04 158.52 223.54 145.98 220.49ZM 167.54 187.90 C 178.02 183.98 184.17 175.84 184.33 165.68 C 184.45 157.67 182.47 152.48 177.20 147.03 C 161.61 130.93 134.00 141.69 134.00 163.87 C 134.00 174.97 140.07 183.97 150.19 187.86 C 157.02 190.48 160.62 190.49 167.54 187.90Z"/></g>
<g fill="#FDB202FE">
<path d="M 204.03 252.21 C 198.15 248.97 196.50 245.82 196.50 237.86 L 196.50 230.87 L 206.66 221.43 C 228.78 200.87 236.02 180.48 232.02 150.08 C 230.51 138.64 231.54 134.98 237.57 130.38 C 240.71 127.98 242.30 127.50 247.08 127.50 C 251.99 127.50 253.37 127.94 256.66 130.58 C 261.52 134.48 263.67 140.59 265.16 154.75 C 268.31 184.60 256.69 217.43 235.53 238.50 C 221.45 252.52 212.02 256.62 204.03 252.21Z"/></g>
<g fill="#FDB202FE">
<path d="M 137.00 268.55 C 117.48 264.48 95.34 251.85 81.57 236.92 C 71.76 226.30 61.14 208.45 58.12 197.50 C 54.63 184.87 59.92 175.29 70.97 174.23 C 79.36 173.42 85.16 177.60 88.00 186.50 C 91.98 198.97 101.54 213.09 111.70 221.51 C 122.71 230.64 133.75 235.30 153.21 239.03 C 160.17 240.37 164.36 243.92 165.96 249.83 C 167.58 255.87 166.33 260.72 161.95 265.42 C 158.28 269.36 158.02 269.46 150.84 269.68 C 146.80 269.81 140.57 269.30 137.00 268.55Z"/></g>
<g fill="#F4F4F4FD">
<path d="M 742.75 251.44 C 742.34 251.01 742.00 245.34 742.00 238.83 C 742.00 227.03 741.99 227.00 739.62 227.00 C 736.88 227.00 735.17 223.18 737.58 222.44 C 742.61 220.89 742.34 221.74 741.70 209.05 C 741.27 200.40 741.43 196.89 742.30 196.18 C 744.33 194.53 778.88 196.30 782.56 198.24 C 791.74 203.08 795.57 211.80 794.77 225.96 C 794.02 239.02 789.59 246.13 780.03 249.61 C 775.15 251.39 744.18 252.90 742.75 251.44ZM 774.13 238.43 C 780.09 235.35 782.96 222.62 779.53 214.43 C 777.48 209.50 771.20 206.80 762.75 207.20 L 756.50 207.50 L 756.20 213.91 C 755.85 221.28 756.41 221.96 762.82 221.98 C 766.72 222.00 767.11 222.22 766.82 224.25 C 766.54 226.21 765.82 226.54 761.25 226.80 L 756.00 227.10 L 756.00 233.55 L 756.00 240.00 L 763.55 240.00 C 768.45 240.00 772.16 239.45 774.13 238.43Z"/></g>
<g fill="#F4F4F4FD">
<path d="M 462.57 188.22 C 462.41 188.07 463.12 184.93 464.14 181.25 C 465.16 177.56 466.00 172.18 466.00 169.29 C 466.00 164.30 466.17 163.96 469.25 162.66 C 472.27 161.39 472.81 160.37 476.85 148.40 C 479.24 141.30 481.81 134.04 482.55 132.25 L 483.90 129.00 L 494.44 129.00 L 504.97 129.00 L 506.35 132.30 C 507.11 134.11 510.09 142.32 512.98 150.55 C 515.87 158.77 519.98 168.80 522.12 172.84 C 524.65 177.62 526.00 181.49 526.00 183.95 L 526.00 187.72 L 519.46 188.39 C 515.86 188.76 512.49 188.80 511.97 188.48 C 511.45 188.16 510.29 185.33 509.39 182.20 C 508.49 179.06 507.31 175.94 506.76 175.25 C 506.06 174.38 502.20 174.00 494.00 174.00 C 485.80 174.00 481.94 174.38 481.23 175.25 C 480.68 175.94 479.65 179.09 478.95 182.25 C 478.25 185.41 477.19 188.09 476.59 188.19 C 474.83 188.50 462.88 188.53 462.57 188.22ZM 501.52 161.98 C 501.86 161.41 500.72 156.66 498.97 151.42 C 494.90 139.21 493.63 139.22 489.81 151.50 C 488.28 156.45 487.23 161.06 487.48 161.75 C 488.04 163.29 500.58 163.49 501.52 161.98Z"/></g>
<g fill="#F4F4F4FD">
<path d="M 331.53 188.20 C 331.36 188.03 332.07 184.65 333.10 180.70 C 334.12 176.74 334.98 171.25 335.00 168.50 C 335.04 163.87 335.28 163.39 338.25 162.00 C 341.24 160.60 341.80 159.45 346.56 145.00 L 351.66 129.50 L 362.67 129.22 L 373.68 128.94 L 380.48 147.72 C 384.22 158.05 388.82 169.37 390.69 172.87 C 393.42 177.98 394.04 180.17 393.80 183.87 L 393.50 188.50 L 388.94 188.80 C 381.58 189.28 379.43 187.95 378.01 182.03 C 376.14 174.24 375.66 174.00 361.90 174.00 C 353.22 174.00 349.82 174.34 349.51 175.25 C 349.28 175.94 348.38 179.05 347.50 182.17 L 345.90 187.84 L 338.86 188.17 C 334.99 188.35 331.69 188.36 331.53 188.20ZM 369.68 161.38 C 370.02 160.50 369.02 155.77 367.46 150.88 C 363.66 138.98 362.39 139.09 358.24 151.70 C 354.56 162.87 354.60 162.96 363.28 162.98 C 367.69 163.00 369.21 162.62 369.68 161.38Z"/></g>
<g fill="#F4F4F4FD">
<path d="M 414.00 191.11 C 414.00 189.01 408.44 187.41 404.96 188.51 C 403.06 189.12 403.00 188.52 403.00 168.22 C 403.00 156.72 402.71 143.19 402.35 138.15 L 401.70 129.00 L 409.32 129.00 L 416.93 129.00 L 417.22 140.25 L 417.50 151.50 L 426.50 151.79 C 440.74 152.26 440.00 152.91 440.00 139.98 L 440.00 129.00 L 446.85 129.00 L 453.70 129.00 L 454.41 157.99 C 454.81 173.93 454.85 187.43 454.51 187.99 C 454.16 188.55 450.76 189.00 446.94 189.00 L 440.00 189.00 L 440.00 178.12 C 440.00 170.03 439.64 166.95 438.60 166.08 C 437.69 165.33 433.76 165.03 427.35 165.21 L 417.50 165.50 L 417.50 171.50 L 417.50 177.50 L 422.00 178.00 C 428.63 178.74 428.52 181.27 421.60 187.81 C 415.74 193.36 414.00 194.12 414.00 191.11Z"/></g>
<g fill="#F4F4F4FD">
<path d="M 663.00 250.25 C 658.08 247.79 654.54 240.54 655.42 234.71 C 656.31 228.74 659.22 224.44 664.01 221.99 L 668.10 219.91 L 665.89 216.32 C 662.93 211.53 662.94 205.29 665.91 201.12 C 669.31 196.36 672.82 195.00 681.76 195.00 C 689.18 195.00 689.79 195.17 692.48 197.98 L 695.34 200.96 L 693.44 204.48 C 691.29 208.48 691.54 208.40 685.59 206.81 C 680.21 205.37 678.00 206.67 678.00 211.26 C 678.00 213.67 679.56 215.86 685.86 222.28 C 693.97 230.56 696.59 231.56 694.93 225.74 C 694.42 223.97 694.00 220.82 694.00 218.76 C 694.00 215.29 694.22 215.00 696.86 215.00 C 698.43 215.00 701.81 215.29 704.36 215.64 L 709.00 216.27 L 709.00 221.82 C 709.00 226.87 708.62 227.82 704.88 232.26 L 700.76 237.15 L 706.88 242.82 C 715.26 250.59 715.08 252.00 705.69 252.00 C 698.87 252.00 698.18 251.80 695.50 249.00 C 692.26 245.62 690.45 245.28 687.89 247.60 C 683.06 251.97 669.37 253.43 663.00 250.25ZM 680.45 239.84 C 683.84 238.29 683.68 237.28 679.30 232.79 C 674.99 228.38 674.41 228.26 671.31 231.17 C 668.47 233.84 668.37 236.37 671.00 239.00 C 673.25 241.25 676.68 241.56 680.45 239.84Z"/></g>
<g fill="#F4F4F4FD">
<path d="M 810.11 249.81 C 804.22 246.65 802.00 242.34 802.00 234.08 C 802.00 220.74 807.97 215.00 821.85 215.00 C 828.72 215.00 833.05 216.19 837.25 219.22 C 840.17 221.33 842.45 219.04 842.80 213.65 C 843.10 209.09 843.18 209.00 846.49 209.00 C 849.43 209.00 849.91 209.36 850.18 211.75 C 850.49 214.39 850.76 214.51 856.75 214.80 L 863.00 215.10 L 863.00 233.55 L 863.00 252.00 L 856.59 252.00 L 850.19 252.00 L 849.84 237.58 C 849.65 229.65 849.21 222.88 848.86 222.52 C 848.51 222.17 846.71 222.28 844.86 222.76 L 841.50 223.63 L 841.48 232.08 C 841.47 238.67 841.03 241.27 839.48 243.91 C 835.96 249.91 833.03 251.34 823.25 251.78 C 815.53 252.12 813.98 251.89 810.11 249.81ZM 826.44 240.78 C 827.35 239.48 828.00 236.46 828.00 233.50 C 828.00 227.23 825.96 224.00 822.01 224.00 C 820.44 224.00 818.45 224.69 817.61 225.53 C 814.40 228.75 814.42 238.28 817.65 241.51 C 819.91 243.77 824.62 243.38 826.44 240.78Z"/></g>
<g fill="#F4F4F4FD">
<path d="M 1041.75 268.93 C 1039.69 267.84 1038.00 266.75 1038.00 266.50 C 1038.00 266.25 1038.72 264.23 1039.61 262.02 C 1041.41 257.52 1042.91 257.10 1048.65 259.50 C 1054.40 261.90 1058.71 261.44 1062.08 258.08 C 1064.76 255.39 1065.90 251.24 1064.37 249.71 C 1064.03 249.36 1062.48 249.74 1060.92 250.54 C 1057.02 252.56 1048.50 252.41 1044.81 250.25 C 1035.01 244.53 1035.32 223.14 1045.29 216.92 C 1047.86 215.32 1049.60 215.02 1054.00 215.45 C 1060.90 216.13 1062.21 216.13 1069.06 215.41 C 1073.07 215.00 1074.90 215.21 1075.63 216.17 C 1076.28 217.02 1076.43 225.43 1076.07 239.68 C 1075.43 264.42 1075.11 265.58 1067.93 269.25 C 1062.85 271.84 1046.89 271.65 1041.75 268.93ZM 1062.80 240.80 C 1063.47 240.13 1064.00 236.91 1064.00 233.50 C 1064.00 225.27 1061.76 223.33 1055.53 226.17 C 1050.99 228.24 1050.45 237.62 1054.69 240.75 C 1056.84 242.34 1061.24 242.36 1062.80 240.80Z"/></g>
<g fill="#F4F4F4FD">
<path d="M 900.81 250.60 C 893.84 248.73 893.00 247.68 893.00 240.88 C 893.00 237.64 893.44 235.00 893.98 235.00 C 894.52 235.00 898.31 236.12 902.41 237.50 C 910.99 240.38 918.11 240.75 920.43 238.43 C 924.21 234.65 921.71 232.41 908.24 227.51 C 896.98 223.41 893.58 220.58 892.41 214.37 C 891.51 209.59 893.55 203.23 897.00 200.00 C 900.94 196.32 906.25 195.00 917.13 195.00 C 925.63 195.00 926.91 195.25 930.38 197.62 C 934.00 200.07 934.20 200.47 933.70 204.24 C 932.85 210.51 932.07 210.76 922.69 207.70 C 910.91 203.87 908.52 204.11 906.67 209.31 C 905.60 212.27 909.89 215.44 918.91 218.35 C 932.51 222.74 936.00 226.43 936.00 236.42 C 936.00 241.15 935.56 242.43 932.91 245.45 C 930.84 247.81 928.13 249.48 924.72 250.49 C 918.64 252.30 907.30 252.35 900.81 250.60Z"/></g>
<g fill="#F4F4F4FD">
<path d="M 498.79 224.29 C 498.46 204.86 498.65 196.27 499.41 195.74 C 500.01 195.32 503.20 195.10 506.50 195.24 L 512.50 195.50 L 512.14 206.75 C 511.77 218.73 512.19 219.69 516.44 216.47 C 519.00 214.53 527.30 214.59 531.13 216.57 C 535.20 218.67 536.99 223.44 537.02 232.22 C 537.04 236.22 537.49 241.43 538.04 243.79 C 539.61 250.59 538.31 252.00 530.46 252.00 L 524.00 252.00 L 524.00 240.50 C 524.00 230.33 523.77 228.77 522.00 227.00 C 519.68 224.68 518.99 224.59 515.55 226.16 C 512.59 227.51 512.64 227.28 512.56 241.00 L 512.50 251.50 L 505.88 251.79 L 499.26 252.09 L 498.79 224.29Z"/></g>
<g fill="#F4F4F4FD">
<path d="M 295.00 165.61 C 295.00 145.20 294.80 142.14 293.42 141.61 C 292.55 141.27 288.50 141.00 284.42 141.00 L 277.00 141.00 L 277.00 135.00 L 277.00 129.00 L 302.00 129.00 L 327.00 129.00 L 327.00 135.00 L 327.00 141.00 L 319.25 141.02 C 314.99 141.02 310.90 141.41 310.17 141.88 C 309.10 142.55 308.89 147.22 309.11 164.64 C 309.27 176.69 309.05 187.10 308.64 187.78 C 308.17 188.54 305.44 189.00 301.44 189.00 L 295.00 189.00 L 295.00 165.61Z"/></g>
<g fill="#F4F4F4FD">
<path d="M 952.06 249.82 C 945.58 246.44 943.63 243.22 943.18 235.18 C 942.71 226.84 944.41 222.31 949.48 218.45 C 952.67 216.01 954.28 215.57 961.43 215.20 C 968.19 214.84 970.51 215.13 974.27 216.80 C 980.62 219.60 982.41 223.27 982.44 233.50 C 982.48 246.88 978.33 251.11 964.52 251.76 C 957.62 252.09 955.88 251.82 952.06 249.82ZM 967.43 241.43 C 970.73 238.13 970.71 229.55 967.39 225.88 C 965.29 223.56 961.26 223.45 958.83 225.65 C 956.35 227.90 956.23 238.50 958.65 241.17 C 960.68 243.41 965.31 243.55 967.43 241.43Z"/></g>
<g fill="#F4F4F4FD">
<path d="M 554.02 249.75 C 548.17 246.76 546.01 243.54 545.31 236.72 C 543.75 221.59 551.40 214.19 567.51 215.22 C 580.05 216.02 585.03 221.31 584.98 233.77 C 584.93 246.33 578.84 252.00 565.40 252.00 C 560.14 252.00 557.34 251.45 554.02 249.75ZM 568.77 242.16 C 570.68 240.95 572.08 234.96 571.37 231.01 C 570.55 226.40 568.34 224.00 564.90 224.00 C 561.04 224.00 559.00 227.29 559.00 233.50 C 559.00 239.66 561.05 243.01 564.81 242.98 C 566.29 242.98 568.07 242.61 568.77 242.16Z"/></g>
<g fill="#F4F4F4FD">
<path d="M 300.77 229.80 L 300.50 207.50 L 292.75 207.21 L 285.00 206.92 L 285.00 200.94 L 285.00 194.96 L 307.75 195.23 L 330.50 195.50 L 330.80 201.21 L 331.10 206.92 L 322.80 207.21 L 314.50 207.50 L 314.50 229.50 L 314.50 251.50 L 307.77 251.80 L 301.04 252.09 L 300.77 229.80Z"/></g>
<g fill="#F4F4F4FD">
<path d="M 407.50 250.79 C 400.74 248.43 397.00 242.48 397.00 234.10 C 397.00 228.02 398.30 224.39 401.81 220.63 C 405.74 216.43 409.97 215.00 418.50 215.00 C 429.24 215.00 432.35 216.54 434.45 222.86 C 435.38 225.64 435.99 229.40 435.82 231.21 L 435.50 234.50 L 423.25 234.78 C 411.79 235.04 411.00 235.19 411.00 237.05 C 411.00 238.20 412.36 239.89 414.25 241.08 C 416.91 242.75 418.60 243.03 423.50 242.62 C 426.80 242.34 430.54 241.80 431.81 241.42 C 434.01 240.77 434.11 240.95 433.81 245.12 C 433.53 249.13 433.20 249.60 430.00 250.69 C 425.70 252.16 411.59 252.22 407.50 250.79Z"/></g>
<g fill="#F4F4F4FD">
<path d="M 991.56 250.80 C 990.68 248.05 990.38 218.08 991.21 216.58 C 992.52 214.26 1001.56 214.38 1002.88 216.75 C 1003.77 218.34 1004.15 218.36 1007.18 217.03 C 1009.00 216.23 1013.30 215.55 1016.73 215.54 C 1022.19 215.50 1023.29 215.83 1025.66 218.21 C 1028.13 220.68 1028.43 221.82 1029.06 231.21 C 1029.44 236.87 1030.09 242.74 1030.49 244.25 C 1030.89 245.76 1030.93 248.15 1030.58 249.54 C 1029.96 252.00 1029.69 252.08 1023.22 251.79 L 1016.50 251.50 L 1016.85 244.30 C 1017.62 228.42 1014.77 222.19 1008.02 224.99 L 1005.06 226.22 L 1004.78 238.86 L 1004.50 251.50 L 998.24 251.80 C 993.77 252.01 991.85 251.72 991.56 250.80Z"/></g>
<g fill="#F4F4F4FD">
<path d="M 598.98 249.75 C 592.92 246.67 590.73 242.57 590.65 234.12 C 590.52 220.53 596.69 215.00 611.96 215.00 C 620.49 215.00 620.65 215.05 623.92 218.42 L 627.23 221.83 L 624.50 225.42 C 622.99 227.39 621.48 229.00 621.13 228.99 C 620.78 228.99 618.70 227.88 616.50 226.53 C 614.30 225.17 611.75 224.05 610.82 224.03 C 607.93 223.98 605.00 228.83 605.00 233.68 C 605.00 242.08 611.67 245.15 622.00 241.50 C 624.34 240.68 626.44 240.00 626.68 240.00 C 626.92 240.00 626.97 242.14 626.80 244.75 C 626.52 249.18 626.27 249.58 623.00 250.69 C 621.08 251.35 615.88 251.91 611.46 251.94 C 605.03 251.99 602.54 251.55 598.98 249.75Z"/></g>
<g fill="#F4F4F4FD">
<path d="M 450.03 249.18 C 447.62 246.77 447.10 245.25 446.50 238.80 C 446.11 234.64 446.07 230.35 446.42 229.26 C 447.44 226.04 446.07 224.00 442.89 224.00 C 440.26 224.00 440.00 223.69 440.00 220.52 C 440.00 217.89 440.63 216.64 442.57 215.37 C 443.98 214.44 446.46 211.06 448.08 207.84 C 450.92 202.21 451.17 202.00 454.97 202.00 L 458.90 202.00 L 459.20 208.25 L 459.50 214.50 L 465.25 214.80 L 471.00 215.10 L 471.00 219.55 L 471.00 224.00 L 466.12 224.00 C 459.57 224.00 458.85 225.12 459.21 234.66 L 459.50 242.50 L 465.25 242.80 L 471.00 243.10 L 471.00 246.57 C 471.00 250.90 468.65 252.00 459.36 252.00 C 453.55 252.00 452.54 251.70 450.03 249.18Z"/></g>
<g fill="#F4F4F4FD">
<path d="M 338.54 250.75 C 337.76 248.28 337.29 217.16 338.01 215.99 C 338.51 215.17 340.46 214.98 344.12 215.38 C 350.66 216.10 351.05 216.10 358.22 215.39 C 363.02 214.91 364.41 215.16 366.93 216.95 L 369.93 219.09 L 367.77 223.54 C 366.58 225.99 365.26 228.00 364.84 228.00 C 364.42 228.00 361.92 227.16 359.29 226.14 C 356.65 225.12 353.94 224.48 353.25 224.72 C 352.33 225.05 352.00 228.75 352.00 238.58 L 352.00 252.00 L 345.47 252.00 C 341.12 252.00 338.81 251.58 338.54 250.75Z"/></g>
<g fill="#F4F4F4FD">
<path d="M 376.00 239.15 C 376.00 232.08 375.49 224.85 374.88 223.07 C 374.05 220.71 374.05 219.19 374.85 217.42 C 375.86 215.22 376.55 215.00 382.48 215.00 L 389.00 215.00 L 389.00 233.50 L 389.00 252.00 L 382.50 252.00 L 376.00 252.00 L 376.00 239.15Z"/></g>
<g fill="#F4F4F4FD">
<path d="M 377.71 206.21 L 372.99 201.42 L 377.28 197.21 C 379.64 194.90 382.03 193.00 382.58 193.00 C 383.88 193.00 391.00 200.26 391.00 201.58 C 391.00 202.13 389.07 204.48 386.71 206.79 L 382.42 211.00 L 377.71 206.21Z"/></g>
<g fill="#F4F4F4FD">
<path d="M 852.21 206.71 C 849.89 204.35 848.00 201.97 848.00 201.42 C 848.00 200.12 855.26 193.00 856.59 193.00 C 857.88 193.00 865.00 200.27 865.00 201.58 C 865.00 202.13 863.07 204.48 860.71 206.79 L 856.42 211.00 L 852.21 206.71Z"/></g>
<g fill="#F4F4F4FD">
<path d="M 560.98 269.48 L 557.57 265.96 L 561.57 261.96 L 565.56 257.97 L 569.48 261.98 L 573.40 265.99 L 570.00 269.50 C 568.14 271.42 566.11 273.00 565.50 273.00 C 564.89 273.00 562.86 271.42 560.98 269.48Z"/></g>
<g fill="#F4F4F4FD">
<path d="M 406.63 206.75 C 407.04 206.06 408.71 203.81 410.35 201.75 C 412.87 198.59 413.94 198.00 417.16 198.00 C 420.57 198.00 421.36 198.51 424.44 202.75 C 427.71 207.24 427.78 207.52 425.81 207.84 C 424.67 208.02 422.46 207.24 420.90 206.09 C 417.40 203.50 416.47 203.49 413.27 206.00 C 410.42 208.25 405.40 208.81 406.63 206.75Z"/></g>
<g fill="#F4F4F4FD">
<path d="M 952.00 206.42 C 952.00 206.10 953.63 203.85 955.62 201.42 C 958.74 197.61 959.76 197.00 963.03 197.00 C 966.33 197.00 967.23 197.55 969.91 201.20 C 971.61 203.51 973.00 205.76 973.00 206.20 C 973.00 207.71 969.27 207.00 966.73 205.00 C 963.57 202.52 962.17 202.52 959.00 205.00 C 956.69 206.81 952.00 207.76 952.00 206.42Z"/></g>
<g fill="#F4F4F4FD">
<path d="M 959.76 191.42 C 959.44 191.11 960.20 187.85 961.43 184.17 L 963.69 177.50 L 968.08 177.50 C 974.53 177.50 974.44 179.86 967.74 186.57 C 962.53 191.77 961.02 192.69 959.76 191.42Z"/></g>
<g fill="#F4F4F4FD">
<path d="M 816.22 203.72 C 809.43 196.85 809.32 194.78 815.75 195.20 L 820.50 195.50 L 822.69 201.50 C 825.40 208.91 825.40 209.00 823.22 209.00 C 822.23 209.00 819.08 206.62 816.22 203.72Z"/></g>
</svg>
